<?xml version="1.0" encoding="utf-8"?>
<!-- Generator: Adobe Illustrator 23.0.1, SVG Export Plug-In . SVG Version: 6.00 Build 0)  -->
<!DOCTYPE svg PUBLIC "-//W3C//DTD SVG 1.1//EN" "http://www.w3.org/Graphics/SVG/1.1/DTD/svg11.dtd" [
	<!ENTITY ns_extend "http://ns.adobe.com/Extensibility/1.0/">
	<!ENTITY ns_ai "http://ns.adobe.com/AdobeIllustrator/10.0/">
	<!ENTITY ns_graphs "http://ns.adobe.com/Graphs/1.0/">
	<!ENTITY ns_vars "http://ns.adobe.com/Variables/1.0/">
	<!ENTITY ns_imrep "http://ns.adobe.com/ImageReplacement/1.0/">
	<!ENTITY ns_sfw "http://ns.adobe.com/SaveForWeb/1.0/">
	<!ENTITY ns_custom "http://ns.adobe.com/GenericCustomNamespace/1.0/">
	<!ENTITY ns_adobe_xpath "http://ns.adobe.com/XPath/1.0/">
]>
<svg version="1.1" id="Livello_1" xmlns:x="&ns_extend;" xmlns:i="&ns_ai;" xmlns:graph="&ns_graphs;"
	 xmlns="http://www.w3.org/2000/svg" xmlns:xlink="http://www.w3.org/1999/xlink" x="0px" y="0px" viewBox="0 0 62 61.6"
	 style="enable-background:new 0 0 62 61.6;" xml:space="preserve">
<style type="text/css">
	.st0{fill:#F25022;}
	.st1{fill:#7FBA00;}
	.st2{fill:#00A4EF;}
	.st3{fill:#FFB900;}
</style>
<metadata>
	<sfw  xmlns="&ns_sfw;">
		<slices></slices>
		<sliceSourceBounds  bottomLeftOrigin="true" height="61.6" width="62" x="1" y="1.2"></sliceSourceBounds>
	</sfw>
</metadata>
<g>
	<path d="M47.7,15.6v-1.4c0-3.8-1.8-7.3-4.8-9.5c1.5,2,2.4,4.5,2.4,7.1v3.8h-2.5v-3.8C42.8,5.3,37.5,0,31,0S19.2,5.3,19.2,11.8v3.8
		H0v41.5c0,2.5,2,4.5,4.5,4.5c0,0,0,0,0,0h53c2.5,0,4.5-2,4.5-4.5c0,0,0,0,0,0V15.6H47.7z M21.6,11.8c0-5.2,4.2-9.4,9.3-9.4
		c0,0,0,0,0,0c5.1,0.1,9.2,4.2,9.4,9.4v3.8H26.5v-1.4c0-5.2,4.2-9.4,9.3-9.4c0,0,0,0,0,0c0.4,0,0.9,0,1.3,0.1
		c-1.2-0.5-2.4-0.8-3.7-0.8c-3,0-5.9,1.5-7.6,3.9c-1.1,1.9-1.7,4-1.7,6.2v1.4h-2.5V11.8z"/>
	<g>
		<rect x="18" y="25.6" class="st0" width="12" height="12"/>
		<rect x="32" y="25.6" class="st1" width="12" height="12"/>
		<rect x="18" y="39.6" class="st2" width="12" height="12"/>
		<rect x="32" y="39.6" class="st3" width="12" height="12"/>
	</g>
</g>
</svg>
